<svg id="Layer_1" data-name="Layer 1" xmlns="http://www.w3.org/2000/svg" viewBox="0 0 324.91 119.25"><defs><style>.cls-1{fill:#00430e;}</style></defs><title>LOGO KOMILI 1878&amp;apos;den beri</title><path class="cls-1" d="M154.7,363.75v-3.47s13.92,1.17,22.84,1.09c9.29-.08,23.76-1.62,23.76-1.62l-.81,3.47c-5.14.48-5.38,1.27-7.22,2.36s-3.38,3.48-4.64,7.28l-9.76,35.32.79.2s31.13-29.4,34.12-32c5.45-4.59,6.37-7,6.37-8.83-.53-2.28-2.68-3.45-4.58-3.76-.63-.05-1.61,0-3.37,0l.8-4.08a174.57,174.57,0,0,0,18.32,1.62c7.69,0,19.65-1.62,19.65-1.62v3.47a21.15,21.15,0,0,0-6,.92,36.26,36.26,0,0,0-9.13,5.44L199,404.44s16.35,25.91,24.46,36.77,14.31,16.44,29.65,23.54c14.78,6.85,40.77-1.22,40.77-1.22-13.52,16.87-36.71,17.7-55.5,13-23.44-5.87-42.78-38.31-43.57-39.67l-15.69-25.26-1.34-.26-4.91,21.79q-.55,1.64-1.1,4a16.36,16.36,0,0,0-.55,3.54c-.52,4.55,4.35,9.26,8.19,9.57v2.6s-13.27-2.61-21.87-3.25c-8.75-.65-22.51,0-22.51,0v-3.41c4-.39,6.11-1.2,7.84-2.43s3.25-3.67,4.41-7.21l15.69-58.63q.63-2,1.18-4.07s1.05-5.69-1.8-7.57A13.87,13.87,0,0,0,157,364a13,13,0,0,0-2.34-.21m102.13,53.81c-2.5,8.79-7.58,15.89-12.28,15.78-6.42-.16-6.58-11.15-2.89-23.81,2-6.82,7.06-14.32,12.21-14.83,5.46-.54,7.35,7.4,3,22.86m18.35-3.29c2.32-11.75-1.46-25.61-20.8-25.61A31.56,31.56,0,0,0,223,414.35c-2.32,11.75,2.79,24.71,21.29,24.71,16.68,0,28.29-11.49,30.93-24.79m5.72-9.87c-.58.32-1,.42-2-.46-.73-.67-.3-1,.08-1.42,3.25-3.4,6.41-7.38,14-11.88,5.14-3.05,10.65-2.61,12.19-.47s.4,6.41,0,8.11-1.2,3.48-.8,5.29c0,0,6.1-7.58,11.6-11.18a24.19,24.19,0,0,1,11.79-4.2c1.7-.1,5.7.41,5.9,4.5l-.1,2.39-1.11,4.1a9,9,0,0,0-.6,4s8.58-8.76,12.79-11.38,7.71-3.7,9.3-3.7,3.7-.1,5.5,1,2.29,3.19,1.7,5.8-3.12,11.47-7.69,29.29c-.32,1.24-1.61,3.79,2.59,2a16.29,16.29,0,0,0,2-1.36c.4-.34,1-.94,1-.94a1,1,0,0,1,1.56-.23l1,1s.53.6-.23,1.29-1.35,1.26-1.35,1.26a73.13,73.13,0,0,1-7.57,6.41c-3.51,2.44-8.89,4.5-11.3,4.4s-5.7-1.71-5.9-4.6a15,15,0,0,1-.2-3.6c.2-1.3,5.9-21.78,5.9-21.78s.71-2.49-.7-2.59-3,.7-4.9,2.29-5.2,4.6-6.5,6.79a11,11,0,0,0-1.5,3.6l-4.7,18.59h-17l7.39-27.5s1.4-5.29-1.79-3.59a28.55,28.55,0,0,0-9.09,8.09c-1.79,2.79-2.21,3.21-2.51,4.7S295.12,437,295.12,437h-17l8.49-32.68s1.55-4.21-2.09-2.41a15.9,15.9,0,0,0-2.64,1.71,5,5,0,0,1-1,.73m84.87-3.74c5.28-5.81,11.74-11,16.11-12.07a15.36,15.36,0,0,1,5.19-.77,5.1,5.1,0,0,1,4.8,3.26c.54,1.69-.51,5-.77,6.08s-7,26.63-7,26.63-.84,3.58,2.37,1.75a18.11,18.11,0,0,0,3.21-2.17s.57-.85,1.53.09a8,8,0,0,1,.85.85s.75.56-.21,1.52-9.41,8.25-12.38,9.73a16,16,0,0,1-8.26,2c-2.94-.11-6.36-2.94-5.66-6.47s6.74-27.45,6.74-27.45.65-2.34-.34-2.7a2.23,2.23,0,0,0-2.27.52l-2.83,2.25s-1.14,1.12-1.9.19-.67-1.51-.54-1.71.82-1,1.36-1.55m14.92-26.46a8,8,0,1,1,8,8,8,8,0,0,1-8-8M425,400.66c5.29-5.81,11.74-11,16.11-12.07a15.38,15.38,0,0,1,5.19-.77,5.1,5.1,0,0,1,4.8,3.26c.54,1.69-.51,5-.77,6.08s-7,26.63-7,26.63-.84,3.58,2.37,1.75a18.07,18.07,0,0,0,3.2-2.17s.57-.85,1.53.09a8.08,8.08,0,0,1,.85.85s.76.56-.21,1.52-9.41,8.25-12.38,9.73a16,16,0,0,1-8.27,2c-2.94-.11-6.36-2.94-5.66-6.47s6.74-27.45,6.74-27.45.65-2.34-.34-2.7a2.23,2.23,0,0,0-2.27.52l-2.83,2.25s-1.14,1.12-1.9.19-.67-1.51-.54-1.71.82-1,1.36-1.55M440,374.2a8,8,0,1,1,8,8,8,8,0,0,1-8-8m-37.21-.9c5.28-5.81,11.74-11,16.11-12.07a15.4,15.4,0,0,1,5.19-.77,5.1,5.1,0,0,1,4.8,3.26c.54,1.69-.51,5-.77,6.08s-14.55,54-14.55,54-.84,3.58,2.37,1.75a18.11,18.11,0,0,0,3.2-2.17s.57-.85,1.53.09a8.08,8.08,0,0,1,.85.85s.76.56-.21,1.52-9.41,8.25-12.38,9.73a16,16,0,0,1-8.27,2c-2.94-.11-6.36-2.94-5.66-6.47s14.29-54.81,14.29-54.81.66-2.34-.34-2.69a2.23,2.23,0,0,0-2.27.52l-2.83,2.25s-1.14,1.12-1.9.19-.67-1.51-.54-1.71.82-1,1.36-1.55" transform="translate(-135 -359.75)"/><path class="cls-1" d="M459,474.3a4.06,4.06,0,0,1-.71-.3,3.85,3.85,0,0,1-.61-.4,1.3,1.3,0,0,1-.36-.41l0-9c0-.12,0-.29,0-.54s0-.49,0-.76,0-.51,0-.75,0-.4,0-.5-.08-.32-.25-.32l-.18,0a3.75,3.75,0,0,1-.67.26q-.44.14-.93.25c-.33.08-.64.14-.95.19s-.57.08-.79.1-.25.11-.25.22.08.15.25.15H454a1.52,1.52,0,0,1,1,.29,1.22,1.22,0,0,1,.37.84q0,.8,0,2t0,2.52v1.67q0,.82,0,1.5c0,.45,0,.84,0,1.17v.67a.6.6,0,0,1-.3.45,3.81,3.81,0,0,1-.71.41,5.19,5.19,0,0,1-.84.3,2.8,2.8,0,0,1-.65.11.2.2,0,0,0-.22.22.23.23,0,0,0,.06.15.23.23,0,0,0,.19.08l.77,0,1.06,0,1,0,.48,0,.46,0,.94,0,1.1,0,.91,0a.2.2,0,0,0,.17-.08.27.27,0,0,0,0-.15c0-.17-.07-.25-.22-.25a2.17,2.17,0,0,1-.64-.11m-1.75-16.15a1.32,1.32,0,0,0,.44-1.1,1.39,1.39,0,0,0-.39-1,1.32,1.32,0,0,0-1-.41,1.39,1.39,0,0,0-1,.41,1.49,1.49,0,0,0-.4,1.09,1.32,1.32,0,0,0,.38,1,1.35,1.35,0,0,0,1,.39,1.57,1.57,0,0,0,1-.35m-7.47,3.39a3.6,3.6,0,0,0-1.65.44,7.33,7.33,0,0,0-1.52,1,.37.37,0,0,1-.15,0c-.1,0-.15-.07-.15-.21v-.51a2.55,2.55,0,0,1,0-.36,1.8,1.8,0,0,0,0-.29c0-.22-.08-.32-.25-.32l-.18.05a4.22,4.22,0,0,1-.63.26q-.4.14-.86.25c-.3.08-.6.14-.89.19s-.54.08-.76.1-.25.11-.25.22.08.15.25.15h.37a1.58,1.58,0,0,1,1,.24,1.14,1.14,0,0,1,.41.71v9.6a.63.63,0,0,1-.25.45,2.9,2.9,0,0,1-.61.41,4.3,4.3,0,0,1-.74.3,2.19,2.19,0,0,1-.6.11.2.2,0,0,0-.22.22.23.23,0,0,0,.06.15.23.23,0,0,0,.19.08l.74,0,1,0,.89,0,.44,0,.58,0,1.2,0,1.35,0,1,0a.2.2,0,0,0,.17-.08.27.27,0,0,0,.05-.15c0-.17-.08-.25-.23-.25a4.4,4.4,0,0,1-.83-.11,7.56,7.56,0,0,1-1-.3,5.12,5.12,0,0,1-.89-.41q-.37-.22-.37-.42v-8.36a1.63,1.63,0,0,1,.2-.81,2.5,2.5,0,0,1,.5-.64,2.35,2.35,0,0,1,.64-.42,1.52,1.52,0,0,1,.61-.15,1.23,1.23,0,0,1,.69.19,1.63,1.63,0,0,1,.47.47,2.07,2.07,0,0,1,.27.65,3.06,3.06,0,0,1,.09.71v.33a.13.13,0,0,0,.15.15s.1-.09.15-.26a4.73,4.73,0,0,0,.13-.61l.1-.7a3.23,3.23,0,0,1,.1-.5l.25-1.07a.15.15,0,0,0,0-.1c0-.17-.19-.3-.57-.4a2.33,2.33,0,0,0-.45-.05m-11.3,11.79a4.86,4.86,0,0,1-1.52.24,3.92,3.92,0,0,1-3.4-1.46,7.3,7.3,0,0,1-1.06-4.31,12.1,12.1,0,0,1,.14-1.69,7.45,7.45,0,0,1,.5-1.82,4.07,4.07,0,0,1,1-1.46,2.44,2.44,0,0,1,1.71-.6,1.73,1.73,0,0,1,1,.25,2.17,2.17,0,0,1,.64.63,2.46,2.46,0,0,1,.35.85,4.6,4.6,0,0,1,.1.93,2.92,2.92,0,0,1-.72,2.11,2.42,2.42,0,0,1-1.82.75,3,3,0,0,1-1.37-.35h-.17c-.15,0-.22,0-.22.15s.1.25.29.35a2.78,2.78,0,0,0,.69.24,8.43,8.43,0,0,0,.83.14,6.55,6.55,0,0,0,.71,0,4.12,4.12,0,0,0,1.18-.2,4,4,0,0,0,1.24-.62,3.51,3.51,0,0,0,1-1.1,3.21,3.21,0,0,0,.39-1.62,2.8,2.8,0,0,0-1.21-2.42,4,4,0,0,0-1.31-.6,6.19,6.19,0,0,0-1.6-.2,4.6,4.6,0,0,0-2,.46,5.23,5.23,0,0,0-1.73,1.35,6.83,6.83,0,0,0-1.22,2.16,8.43,8.43,0,0,0-.46,2.89,8.14,8.14,0,0,0,.41,2.62,6.77,6.77,0,0,0,1.14,2.12,5.34,5.34,0,0,0,1.75,1.42,4.84,4.84,0,0,0,2.25.52,4.48,4.48,0,0,0,.93-.12,5.79,5.79,0,0,0,1.16-.4,5.89,5.89,0,0,0,1.15-.7,3.45,3.45,0,0,0,.9-1,.37.37,0,0,0,0-.15c0-.13-.06-.2-.18-.2a.29.29,0,0,0-.25.15,2.47,2.47,0,0,1-1.15.74m-16.24-11.84a4.86,4.86,0,0,0-2,.34q-.7.34-.7.54c0,.1.06.15.17.15a3.21,3.21,0,0,0,.49-.17,3.54,3.54,0,0,1,1.26-.18,4,4,0,0,1,1.6.33,3.4,3.4,0,0,1,1.3,1,5.22,5.22,0,0,1,.87,1.79,9.47,9.47,0,0,1,.32,2.65,8.37,8.37,0,0,1-1.11,4.77,4.15,4.15,0,0,1-3.67,1.6,2.18,2.18,0,0,1-1.75-.65,2.46,2.46,0,0,1-.55-1.65l0-14.17c0-.12,0-.29,0-.54s0-.49,0-.76,0-.52,0-.75,0-.4,0-.5-.08-.32-.25-.32q-.74.23-1.4.4l-1.18.29a6.87,6.87,0,0,1-1,.16c-.17,0-.25.11-.25.23s.08.15.25.15h.35a1.49,1.49,0,0,1,1.07.32,1.41,1.41,0,0,1,.35,1v5q0,1.42,0,2.94t0,3v6a1.1,1.1,0,0,0,0,.31c0,.08.1.12.24.12a.79.79,0,0,0,.3-.08l.36-.15.36-.15a.74.74,0,0,1,.27-.08,4.55,4.55,0,0,1,1.33.25,5.81,5.81,0,0,0,1.76.25,7.3,7.3,0,0,0,2.12-.35,6,6,0,0,0,2.13-1.17,6.48,6.48,0,0,0,1.65-2.19,7.84,7.84,0,0,0,.66-3.42,7.25,7.25,0,0,0-1.15-4.33,5,5,0,0,0-3.27-2,8.18,8.18,0,0,0-1-.07m-16.05,12.78a4.74,4.74,0,0,1-.83-.3,3.54,3.54,0,0,1-.69-.41c-.19-.15-.29-.29-.29-.42l0-7.81a4.22,4.22,0,0,0-.36-1.85,3.32,3.32,0,0,0-.94-1.2,3.47,3.47,0,0,0-1.35-.64,6.77,6.77,0,0,0-1.6-.19,5.63,5.63,0,0,0-2.17.37,6.55,6.55,0,0,0-1.72,1.07c-.13.15-.24.23-.32.23s-.15-.07-.15-.2v-.52a2.26,2.26,0,0,1,0-.36,2.06,2.06,0,0,0,0-.29c0-.22-.08-.32-.25-.32l-.17,0a4.15,4.15,0,0,1-.62.26c-.27.09-.55.17-.85.25s-.6.14-.89.19-.54.08-.76.1-.25.11-.25.22.08.15.25.15h.38a1.58,1.58,0,0,1,1,.24,1.14,1.14,0,0,1,.41.71v9.55a.61.61,0,0,1-.3.45,3.82,3.82,0,0,1-.71.41,5.35,5.35,0,0,1-.84.3,2.74,2.74,0,0,1-.65.11.2.2,0,0,0-.22.22.24.24,0,0,0,.25.22l.79,0,1.1-.05,1,0,.47,0,.4,0,.82,0,1,.05.86,0a.19.19,0,0,0,.17-.08.27.27,0,0,0,0-.15c0-.17-.07-.25-.22-.25a2.24,2.24,0,0,1-.66-.11,2.83,2.83,0,0,1-.66-.3,2.29,2.29,0,0,1-.5-.41.66.66,0,0,1-.2-.42l0-8.11a1.62,1.62,0,0,1,.35-1,3.13,3.13,0,0,1,.87-.76,4.45,4.45,0,0,1,1.14-.47,4.38,4.38,0,0,1,1.11-.16,4,4,0,0,1,1.07.15,2.7,2.7,0,0,1,1,.51,2.76,2.76,0,0,1,.74.94,3.17,3.17,0,0,1,.29,1.42v7.51a.66.66,0,0,1-.22.45,2.67,2.67,0,0,1-.55.41,3.51,3.51,0,0,1-.67.3,2,2,0,0,1-.57.11.2.2,0,0,0-.23.22.24.24,0,0,0,.06.15.23.23,0,0,0,.19.08l.71,0,.92-.05.82,0,.41,0,.49,0,1,0,1.16.05.94,0a.19.19,0,0,0,.17-.08.27.27,0,0,0,.05-.15c0-.17-.08-.25-.22-.25a3,3,0,0,1-.74-.11m-18.42-.95a4.85,4.85,0,0,1-1.52.24,3.92,3.92,0,0,1-3.4-1.46,7.31,7.31,0,0,1-1.06-4.31,12.24,12.24,0,0,1,.14-1.69,7.36,7.36,0,0,1,.5-1.82,4.06,4.06,0,0,1,1-1.46,2.44,2.44,0,0,1,1.71-.6,1.73,1.73,0,0,1,1,.25,2.17,2.17,0,0,1,.64.63,2.42,2.42,0,0,1,.35.85,4.47,4.47,0,0,1,.1.93,2.91,2.91,0,0,1-.72,2.11,2.42,2.42,0,0,1-1.82.75,3,3,0,0,1-1.37-.35h-.17c-.15,0-.22,0-.22.15s.1.25.29.35a2.77,2.77,0,0,0,.69.24,8.45,8.45,0,0,0,.84.14,6.53,6.53,0,0,0,.71,0,4.14,4.14,0,0,0,1.19-.2,4,4,0,0,0,1.23-.62,3.51,3.51,0,0,0,1-1.1,3.21,3.21,0,0,0,.39-1.62,2.94,2.94,0,0,0-.33-1.42,2.9,2.9,0,0,0-.88-1,4,4,0,0,0-1.31-.6,6.19,6.19,0,0,0-1.6-.2,4.62,4.62,0,0,0-2,.46,5.25,5.25,0,0,0-1.73,1.35,6.85,6.85,0,0,0-1.22,2.16,8.43,8.43,0,0,0-.46,2.89,8.17,8.17,0,0,0,.41,2.62,6.83,6.83,0,0,0,1.13,2.12,5.36,5.36,0,0,0,1.75,1.42,4.84,4.84,0,0,0,2.24.52,4.47,4.47,0,0,0,.94-.12,5.79,5.79,0,0,0,1.16-.4,5.89,5.89,0,0,0,1.15-.7,3.43,3.43,0,0,0,.9-1,.35.35,0,0,0,0-.15c0-.13-.06-.2-.17-.2a.29.29,0,0,0-.25.15,2.46,2.46,0,0,1-1.15.74m-10.6.79a1.45,1.45,0,0,1-1-.4,1.24,1.24,0,0,1-.46-1V457.83q0-.77.05-1.4t0-1.2c0-.22-.12-.32-.25-.32a.42.42,0,0,0-.18,0,6.51,6.51,0,0,1-1.72.57,14.12,14.12,0,0,1-1.7.22c-.15,0-.23.11-.23.22s.08.15.23.15h.35a1.57,1.57,0,0,1,1.11.32,1.38,1.38,0,0,1,.36,1v13.22a3.92,3.92,0,0,1-.21,1.27A3.2,3.2,0,0,1,373,473a3.47,3.47,0,0,1-1.11.81,3.63,3.63,0,0,1-1.56.31,3.24,3.24,0,0,1-1.61-.41,3.68,3.68,0,0,1-1.26-1.19,6.07,6.07,0,0,1-.81-1.85,9.42,9.42,0,0,1-.29-2.42,10.84,10.84,0,0,1,.24-2.25,7,7,0,0,1,.76-2,4.24,4.24,0,0,1,1.4-1.47,3.88,3.88,0,0,1,2.14-.56,5.22,5.22,0,0,1,.91.09c.32.06.64.13.94.21a.33.33,0,0,0,.15,0c.15,0,.22,0,.22-.15s-.09-.2-.26-.3a2.7,2.7,0,0,0-.65-.25,7.71,7.71,0,0,0-.85-.16,6.38,6.38,0,0,0-.84-.06h-.4a6.49,6.49,0,0,0-2.56.67,5.69,5.69,0,0,0-1.86,1.51,6.44,6.44,0,0,0-1.12,2.15,8.67,8.67,0,0,0-.37,2.58,8.25,8.25,0,0,0,.4,2.61,6.62,6.62,0,0,0,1.12,2.11,5.11,5.11,0,0,0,1.77,1.41,5.28,5.28,0,0,0,2.35.51,6.75,6.75,0,0,0,2.17-.34,5.31,5.31,0,0,0,1.67-.89l.17-.11a.22.22,0,0,1,.12-.06c.07,0,.1.08.1.22v.49a1.78,1.78,0,0,0,.06.49.27.27,0,0,0,.29.23h.1l.57-.1,1.06-.16c.38-.06.71-.12,1-.2s.46-.15.46-.21-.09-.17-.27-.17a.46.46,0,0,1-.18,0m-16.53-13.8a4.84,4.84,0,0,0,1.18-1.87,4.1,4.1,0,0,0,.23-1.4,1.19,1.19,0,0,0-.45-.9,1.46,1.46,0,0,0-.9-.3,1.53,1.53,0,0,0-1,.4,1.36,1.36,0,0,0-.45,1.07,1,1,0,0,0,.17.64,1.56,1.56,0,0,0,.38.34l.37.21a.28.28,0,0,1,.18.26,1.93,1.93,0,0,1-.1.59c-.07.21-.14.41-.22.6l-.22.5a1,1,0,0,0-.1.26.18.18,0,0,0,.2.2.55.55,0,0,0,.25-.12,6.53,6.53,0,0,0,.54-.47m-12.37,12.73a4.73,4.73,0,0,1-1-3.25,5.05,5.05,0,0,1,.65-2.25,7.2,7.2,0,0,1,2-2.32.41.41,0,0,1,.28-.15.62.62,0,0,1,.28.1q.75.4,1.45.86a6.69,6.69,0,0,1,1.25,1.06,4.94,4.94,0,0,1,.89,1.36,4.29,4.29,0,0,1,.34,1.76,5,5,0,0,1-.24,1.57,3.75,3.75,0,0,1-.69,1.26,3.13,3.13,0,0,1-2.48,1.13,3.4,3.4,0,0,1-2.67-1.13m3.89-16.11a2.78,2.78,0,0,1,.91.7,3.29,3.29,0,0,1,.58,1,3.42,3.42,0,0,1,.21,1.2,3,3,0,0,1-.65,1.9,8.63,8.63,0,0,1-1.52,1.5.34.34,0,0,1-.25.07,1,1,0,0,1-.42-.1q-.6-.35-1.16-.71a5.81,5.81,0,0,1-1-.77,3.47,3.47,0,0,1-.66-.91,2.62,2.62,0,0,1-.25-1.17,3.22,3.22,0,0,1,.2-1.13,2.9,2.9,0,0,1,.57-.95,2.62,2.62,0,0,1,.92-.65,3.17,3.17,0,0,1,1.27-.24,2.69,2.69,0,0,1,1.2.26m.11,6.92c0-.08.17-.23.5-.44a11.09,11.09,0,0,0,1.11-.81A6,6,0,0,0,355,461.4a2.81,2.81,0,0,0,.5-1.66,3.75,3.75,0,0,0-.35-1.65,3.67,3.67,0,0,0-1-1.24,4.21,4.21,0,0,0-1.42-.77,5.58,5.58,0,0,0-1.73-.26,6.2,6.2,0,0,0-2,.3,4.52,4.52,0,0,0-1.56.87,3.93,3.93,0,0,0-1,1.38,4.52,4.52,0,0,0-.36,1.86,3.39,3.39,0,0,0,.26,1.32,4.72,4.72,0,0,0,.69,1.15,6.78,6.78,0,0,0,1,1,11.37,11.37,0,0,0,1.15.82c.1,0,.15.1.15.15s0,.07-.12.12l-1.36,1.08a9.59,9.59,0,0,0-1.25,1.22,6.08,6.08,0,0,0-.91,1.43,4.08,4.08,0,0,0-.35,1.7,4.71,4.71,0,0,0,.45,2.11,4.52,4.52,0,0,0,1.2,1.52,5.17,5.17,0,0,0,1.75.92,7,7,0,0,0,2.1.31,6,6,0,0,0,2.36-.44,5.2,5.2,0,0,0,1.75-1.17,5,5,0,0,0,1.07-1.67,5.4,5.4,0,0,0,.36-2,5.86,5.86,0,0,0-.29-1.91,5.39,5.39,0,0,0-.81-1.52,7.18,7.18,0,0,0-1.25-1.26,18.11,18.11,0,0,0-1.6-1.12c-.1-.07-.15-.12-.15-.17m-9.63-7.76a.18.18,0,0,0-.2-.2.67.67,0,0,0-.45.17h-9.13a1.64,1.64,0,0,1-.46-.16.86.86,0,0,0-.39-.11h-.17s-.06.08-.09.22,0,.38-.07.71-.08.81-.16,1.45c0,.08,0,.24-.09.47s-.09.48-.14.74l-.14.72a3,3,0,0,0-.06.46c0,.2.07.3.22.3s.24-.1.32-.3a6,6,0,0,1,.41-1.15,5,5,0,0,1,.61-1,2.82,2.82,0,0,1,.77-.69,1.84,1.84,0,0,1,.95-.25h4.81q.82,0,1.35,0t.47.17a1.38,1.38,0,0,1-.4.7l-1,1.19q-.61.71-1.37,1.65a22.76,22.76,0,0,0-1.48,2.06,20.74,20.74,0,0,0-1.33,2.42,12.25,12.25,0,0,0-.91,2.72,8.2,8.2,0,0,0-.2,1.9,8.71,8.71,0,0,0,.11,1.37,5.92,5.92,0,0,0,.37,1.34,4.45,4.45,0,0,0,.71,1.17,3.64,3.64,0,0,0,1.12.89.64.64,0,0,0,.27.07.15.15,0,0,0,.17-.17v-.11a.25.25,0,0,0,0-.14,1.9,1.9,0,0,1-.55-1.1,8.35,8.35,0,0,1-.15-1.62,13.81,13.81,0,0,1,.12-1.85q.12-.92.28-1.57a20.79,20.79,0,0,1,1.17-3.64q.72-1.67,1.53-3.14t1.63-2.77q.82-1.3,1.47-2.54a.84.84,0,0,0,.1-.37m-22.81,17a4.73,4.73,0,0,1-1-3.25,5.06,5.06,0,0,1,.65-2.25,7.25,7.25,0,0,1,2-2.32.42.42,0,0,1,.28-.15.62.62,0,0,1,.28.1q.75.4,1.45.86a6.7,6.7,0,0,1,1.25,1.06,5,5,0,0,1,.89,1.36,4.29,4.29,0,0,1,.34,1.76,5,5,0,0,1-.24,1.57,3.79,3.79,0,0,1-.69,1.26,3.13,3.13,0,0,1-2.48,1.13,3.4,3.4,0,0,1-2.67-1.13m3.9-16.11a2.81,2.81,0,0,1,.91.7,3.27,3.27,0,0,1,.58,1,3.43,3.43,0,0,1,.21,1.2,3,3,0,0,1-.65,1.9,8.66,8.66,0,0,1-1.51,1.5.35.35,0,0,1-.25.07.94.94,0,0,1-.42-.1q-.6-.35-1.16-.71a5.79,5.79,0,0,1-1-.77,3.49,3.49,0,0,1-.66-.91,2.59,2.59,0,0,1-.25-1.17,3.22,3.22,0,0,1,.2-1.13,2.87,2.87,0,0,1,.57-.95,2.61,2.61,0,0,1,.92-.65,3.18,3.18,0,0,1,1.27-.24,2.7,2.7,0,0,1,1.2.26m.1,6.92c0-.08.17-.23.5-.44a11.09,11.09,0,0,0,1.11-.81,6,6,0,0,0,1.11-1.21,2.8,2.8,0,0,0,.5-1.66,3.75,3.75,0,0,0-.35-1.65,3.66,3.66,0,0,0-1-1.24,4.21,4.21,0,0,0-1.42-.77,5.58,5.58,0,0,0-1.73-.26,6.21,6.21,0,0,0-2,.3,4.53,4.53,0,0,0-1.56.87,3.94,3.94,0,0,0-1,1.38,4.52,4.52,0,0,0-.36,1.86,3.35,3.35,0,0,0,.26,1.32,4.68,4.68,0,0,0,.69,1.15,6.78,6.78,0,0,0,1,1,11.17,11.17,0,0,0,1.15.82c.1,0,.15.1.15.15s0,.07-.12.12l-1.36,1.08a9.66,9.66,0,0,0-1.25,1.22,6,6,0,0,0-.91,1.43,4.07,4.07,0,0,0-.35,1.7,4.71,4.71,0,0,0,.45,2.11,4.53,4.53,0,0,0,1.2,1.52,5.15,5.15,0,0,0,1.75.92,7,7,0,0,0,2.09.31,6,6,0,0,0,2.36-.44,5.2,5.2,0,0,0,1.75-1.17,5,5,0,0,0,1.07-1.67,5.38,5.38,0,0,0,.36-2,5.89,5.89,0,0,0-.29-1.91,5.36,5.36,0,0,0-.81-1.52,7.18,7.18,0,0,0-1.25-1.26A18.11,18.11,0,0,0,324,464c-.1-.07-.15-.12-.15-.17m-10.28,10.53a8.2,8.2,0,0,1-.95-.26,5.64,5.64,0,0,1-.85-.36,1.3,1.3,0,0,1-.5-.4V457.2a2.8,2.8,0,0,1,.09-.79,1.66,1.66,0,0,0,.09-.41c0-.17-.09-.25-.28-.25a.75.75,0,0,0-.4.15,4,4,0,0,1-.92.72q-.65.4-1.41.77a13.64,13.64,0,0,1-1.56.65,5.87,5.87,0,0,1-1.37.32.45.45,0,0,0-.25.1.21.21,0,0,0-.07.15c0,.1.07.15.2.15h.15a4.44,4.44,0,0,0,.67-.06c.27,0,.53-.09.79-.15l.7-.16a2.31,2.31,0,0,0,.41-.12.87.87,0,0,1,.32,0,.78.78,0,0,1,.59.25.76.76,0,0,1,.24.52v14.27c0,.15-.18.3-.44.44a6.74,6.74,0,0,1-.88.4,7.25,7.25,0,0,1-1,.3,4,4,0,0,1-.79.11c-.17,0-.25.07-.25.2s.1.25.3.25l.92,0,1.32-.06,1.2-.06.57,0,.55,0,1.16.06,1.35.06,1.11,0a.23.23,0,0,0,.19-.08.24.24,0,0,0,.06-.15.22.22,0,0,0-.25-.25,4,4,0,0,1-.8-.1" transform="translate(-135 -359.75)"/></svg>